<svg xmlns="http://www.w3.org/2000/svg" xmlns:xlink="http://www.w3.org/1999/xlink" width="48" height="48">
<g fill="rgb(100%,100%,100%)" stroke="rgb(100%,100%,100%)" stroke-width="1.021">
<path d="M2.461 32.617A2.46 2.46 0 0 1 0 30.152V17.848a2.46 2.46 0 1 1 4.922 0v12.305c0 1.359-1.102 2.465-2.461 2.465zm0 0"/>
<use xlink:href="#B"/>
<path d="M16.82 35.691a2.46 2.46 0 0 1-2.461-2.461V14.77a2.461 2.461 0 1 1 4.922 0v18.46a2.46 2.46 0 0 1-2.461 2.461zM24 41.848a2.46 2.46 0 0 1-2.461-2.461V8.617c0-1.359 1.102-2.465 2.461-2.465s2.461 1.105 2.461 2.465v30.766A2.46 2.46 0 0 1 24 41.848zM31.18 48a2.46 2.46 0 0 1-2.461-2.461V2.461a2.461 2.461 0 1 1 4.922 0v43.078A2.46 2.46 0 0 1 31.18 48zm0 0"/>
<use xlink:href="#B" x="28.718"/>
<path d="M45.539 29.539a2.46 2.46 0 0 1-2.461-2.461v-6.152c0-1.359 1.102-2.465 2.461-2.465S48 19.566 48 20.926v6.152a2.46 2.46 0 0 1-2.461 2.461zm0 0"/>
</g>
<defs>
<style>
      svg {
        background-color: #015c81;
      }
      @media (prefers-color-scheme:dark) {
        svg {
          background-color: rgba(255,255,255,0);
        }
      }
    </style>
<path id="B" d="M9.641 38.77a2.46 2.46 0 0 1-2.461-2.461V11.691a2.46 2.46 0 1 1 4.922 0v24.617a2.46 2.46 0 0 1-2.461 2.461zm0 0"/>
</defs>
</svg>